<svg width="33" height="35" viewBox="0 0 33 35" fill="none" xmlns="http://www.w3.org/2000/svg">
<path d="M6 12L3 16V30C3 30.5304 3.21071 31.0391 3.58579 31.4142C3.96086 31.7893 4.46957 32 5 32H19C19.5304 32 20.0391 31.7893 20.4142 31.4142C20.7893 31.0391 21 30.5304 21 30V16L18 12H6Z" stroke="#1D1D1D" stroke-width="2" stroke-linecap="round" stroke-linejoin="round"/>
<path d="M3 16H21" stroke="#1D1D1D" stroke-width="2" stroke-linecap="round" stroke-linejoin="round"/>
<path d="M16 20C16 21.0609 15.5786 22.0783 14.8284 22.8284C14.0783 23.5786 13.0609 24 12 24C10.9391 24 9.92172 23.5786 9.17157 22.8284C8.42143 22.0783 8 21.0609 8 20" stroke="#1D1D1D" stroke-width="2" stroke-linecap="round" stroke-linejoin="round"/>
<circle cx="22.5" cy="17.5" r="10.5" fill="#024E82"/>
<path d="M18.4756 21V19.81H19.8556V16.14H18.6656V15.23C19.0123 15.1633 19.3056 15.0833 19.5456 14.99C19.7856 14.8967 20.019 14.7833 20.2456 14.65H21.3256V19.81H22.5156V21H18.4756ZM25.6988 21.12C25.0188 21.12 24.4688 20.8367 24.0488 20.27C23.6355 19.7033 23.4288 18.88 23.4288 17.8C23.4288 16.72 23.6355 15.9067 24.0488 15.36C24.4688 14.8067 25.0188 14.53 25.6988 14.53C26.3788 14.53 26.9255 14.8067 27.3388 15.36C27.7588 15.9067 27.9688 16.72 27.9688 17.8C27.9688 18.88 27.7588 19.7033 27.3388 20.27C26.9255 20.8367 26.3788 21.12 25.6988 21.12ZM25.6988 19.98C25.8655 19.98 26.0155 19.92 26.1488 19.8C26.2822 19.6733 26.3855 19.4533 26.4588 19.14C26.5388 18.8267 26.5788 18.38 26.5788 17.8C26.5788 17.22 26.5388 16.7767 26.4588 16.47C26.3855 16.1633 26.2822 15.9533 26.1488 15.84C26.0155 15.7267 25.8655 15.67 25.6988 15.67C25.5388 15.67 25.3922 15.7267 25.2588 15.84C25.1255 15.9533 25.0188 16.1633 24.9388 16.47C24.8588 16.7767 24.8188 17.22 24.8188 17.8C24.8188 18.38 24.8588 18.8267 24.9388 19.14C25.0188 19.4533 25.1255 19.6733 25.2588 19.8C25.3922 19.92 25.5388 19.98 25.6988 19.98Z" fill="white"/>
</svg>
